<svg xmlns="http://www.w3.org/2000/svg" width="197" height="42" viewBox="0 0 197 42" fill="none"><path d="M29.7594 1.44819C27.9208 1.37377 26.0857 1.66463 24.3607 2.30388C22.6357 2.94314 21.0551 3.91805 19.7108 5.17201C17.9819 6.88235 16.767 9.04144 16.2038 11.405C15.6926 8.72971 14.3935 6.26737 12.4725 4.33296C9.88758 1.85024 6.45157 0.444264 2.86428 0.401367C2.5733 0.410775 2.29631 0.528207 2.0875 0.730687C1.87869 0.933167 1.75311 1.20612 1.73531 1.49614C1.58544 3.27837 1.79134 5.07258 2.34111 6.77484C2.89087 8.4771 3.77356 10.0536 4.93807 11.413C6.21557 12.8302 7.77763 13.9632 9.52268 14.7383C11.2677 15.5134 13.1567 15.9133 15.0668 15.912C15.2148 17.4352 15.1691 18.971 14.9307 20.4828C14.8106 21.4577 14.7145 22.4326 14.6824 23.4076C14.6504 24.3825 14.5143 25.8928 15.0668 26.7398C15.1788 26.8993 15.3228 27.0338 15.4896 27.1348C15.6564 27.2359 15.8424 27.3012 16.0359 27.3268C16.2293 27.3523 16.426 27.3375 16.6134 27.2832C16.8008 27.2289 16.9748 27.1364 17.1245 27.0115C17.9252 26.3722 17.8131 24.8539 17.7971 23.895C17.7755 22.7537 17.69 21.6146 17.5409 20.4828C17.3293 18.9789 17.2997 17.455 17.4528 15.9439C20.4618 15.9515 23.3861 14.9496 25.756 13.0991C30.1197 9.62302 30.6562 4.42086 30.6882 2.35118C30.6894 2.23024 30.666 2.11032 30.6194 1.99866C30.5728 1.887 30.504 1.78592 30.4172 1.70152C30.3304 1.61713 30.2274 1.55117 30.1143 1.50763C30.0013 1.46408 29.8805 1.44387 29.7594 1.44819ZM15.1388 13.8103C12.3638 10.7829 9.34003 7.99227 6.09907 5.46768C6.0789 5.4481 6.06575 5.42243 6.06165 5.39464C6.05756 5.36686 6.06274 5.3385 6.07641 5.31395C6.09008 5.28939 6.11146 5.27002 6.13727 5.25881C6.16307 5.2476 6.19185 5.24518 6.21917 5.25192C12.8729 7.5933 14.8506 12.1722 15.347 13.6905C15.3549 13.7041 15.36 13.7192 15.3621 13.7348C15.3641 13.7504 15.3631 13.7663 15.359 13.7815C15.3549 13.7967 15.3479 13.8109 15.3382 13.8234C15.3286 13.8359 15.3167 13.8464 15.303 13.8543C15.2893 13.8621 15.2742 13.8672 15.2586 13.8693C15.2429 13.8714 15.227 13.8703 15.2118 13.8662C15.1965 13.8621 15.1823 13.8551 15.1697 13.8455C15.1572 13.8359 15.1467 13.824 15.1388 13.8103Z" fill="#97B545"></path><path d="M32.5618 20.5707L31.9613 24.5183C31.9123 24.9067 31.7222 25.2636 31.427 25.5214C31.1318 25.7791 30.7521 25.9198 30.3599 25.9167H29.9356C29.9356 25.9167 28.5664 33.5002 27.8458 36.5288C27.1252 39.5574 26.0362 40.6602 23.0416 41.0837C18.5518 41.5072 14.0319 41.5072 9.54203 41.0837C6.54745 40.6602 5.4425 39.5654 4.7379 36.5288C4.03329 33.4922 2.65611 25.9167 2.65611 25.9167H2.22373C1.83435 25.9098 1.45997 25.7657 1.16688 25.5097C0.873793 25.2538 0.680902 24.9026 0.622358 24.5183L0.0218412 20.5707C-0.0175431 20.335 -0.0034619 20.0935 0.063051 19.8639C0.129564 19.6344 0.246815 19.4226 0.406171 19.2442C0.564773 19.0672 0.758277 18.9247 0.97458 18.8257C1.19088 18.7267 1.42533 18.6733 1.66325 18.6689C5.09821 18.3093 8.86945 18.0536 12.8249 17.9577C12.9236 17.9555 13.0218 17.9732 13.1135 18.0097C13.2053 18.0462 13.2888 18.1007 13.359 18.1701C13.4292 18.2394 13.4847 18.3221 13.5223 18.4133C13.5598 18.5045 13.5786 18.6023 13.5775 18.7008C13.5775 18.9566 13.5775 19.2362 13.5775 19.4999C13.5817 19.6896 13.5361 19.8771 13.4452 20.0438C13.3543 20.2104 13.2212 20.3504 13.0593 20.4498C12.8973 20.5492 12.7121 20.6045 12.5221 20.6103C12.3321 20.6161 12.1438 20.5722 11.9761 20.4828C11.5345 20.3133 11.0639 20.2319 10.5909 20.2431C8.43708 20.2431 6.78766 22.0491 6.78766 25.725C6.84003 27.6535 7.30121 29.549 8.14082 31.2867C9.20687 33.6361 10.7564 35.7353 12.6887 37.4478C13.4502 38.1966 14.3854 38.7456 15.4111 39.046C16.0724 39.1694 16.7534 39.14 17.4015 38.9599C18.0497 38.7798 18.648 38.4539 19.1503 38.0072C20.184 37.174 21.1237 36.2308 21.9527 35.1943C23.4052 33.3788 24.4927 31.3003 25.1555 29.0732C25.5146 27.9969 25.7169 26.8747 25.756 25.7409C25.756 22.0731 24.1546 20.2591 21.9527 20.2591C21.4823 20.2477 21.0143 20.3291 20.5755 20.4988C20.413 20.5616 20.2377 20.5844 20.0644 20.5655C19.8912 20.5466 19.725 20.4865 19.5798 20.3902C19.4347 20.2939 19.3148 20.1642 19.2303 20.0121C19.1458 19.86 19.0992 19.6898 19.0942 19.5159C19.0942 19.2362 19.0942 18.9566 19.0942 18.7168C19.0931 18.6182 19.1119 18.5205 19.1495 18.4293C19.187 18.3381 19.2425 18.2554 19.3127 18.186C19.383 18.1167 19.4664 18.0622 19.5582 18.0257C19.65 17.9892 19.7481 17.9715 19.8469 17.9737C23.8503 18.0695 27.5735 18.3253 31.0165 18.6849C31.2456 18.698 31.4694 18.7585 31.6739 18.8626C31.8783 18.9666 32.0589 19.1118 32.2042 19.2891C32.3494 19.4664 32.4562 19.6718 32.5178 19.8924C32.5794 20.1131 32.5944 20.344 32.5618 20.5707Z" fill="#97B545"></path><path d="M61.1224 38.9901H62.6517V39.4296H60.65V35.9615H61.1224V38.9901Z" fill="white"></path><path d="M65.7904 39.4296L67.0555 35.9615H67.5839L68.857 39.4296H68.3606L68.0483 38.5665H66.5911L66.2788 39.4296H65.7904ZM66.7352 38.159H67.9122L67.3918 36.7126C67.3677 36.6449 67.3489 36.5755 67.3357 36.5049C67.3216 36.5753 67.3028 36.6446 67.2797 36.7126L66.7352 38.159Z" fill="white"></path><path d="M72.1959 39.4296V35.9615H72.6603L74.4378 38.6385V35.9615H74.9102V39.4296H74.4378L72.6603 36.7446V39.4296H72.1959Z" fill="white"></path><path d="M78.6014 39.4296V35.9615H79.7304C80.1912 35.9615 80.6331 36.1442 80.959 36.4694C81.2848 36.7946 81.4679 37.2356 81.4679 37.6955C81.4679 38.1554 81.2848 38.5965 80.959 38.9217C80.6331 39.2469 80.1912 39.4296 79.7304 39.4296H78.6014ZM79.0738 36.393V38.9901H79.7144C80.0418 38.9644 80.3475 38.8165 80.5705 38.5758C80.7935 38.3351 80.9174 38.0193 80.9174 37.6915C80.9174 37.3637 80.7935 37.048 80.5705 36.8073C80.3475 36.5666 80.0418 36.4186 79.7144 36.393H79.0738Z" fill="white"></path><path d="M85.9517 35.8975C86.0904 35.8821 86.2308 35.8953 86.3642 35.9363C86.4976 35.9773 86.621 36.0453 86.7269 36.136C86.8328 36.2267 86.9189 36.3382 86.9797 36.4635C87.0406 36.5888 87.075 36.7253 87.0807 36.8645H86.6083C86.6035 36.7848 86.5823 36.707 86.5461 36.6359C86.5099 36.5647 86.4595 36.5017 86.398 36.4508C86.3365 36.3999 86.2651 36.3621 86.1883 36.3398C86.1116 36.3174 86.0311 36.3111 85.9517 36.3211C85.5114 36.3211 85.2311 36.5448 85.2311 36.8804C85.2311 37.2161 85.3833 37.3279 85.7115 37.4079L86.288 37.5357C86.8485 37.6716 87.1368 37.9752 87.1368 38.4627C87.1368 39.086 86.6563 39.4855 85.9117 39.4855C85.1671 39.4855 84.7427 39.1179 84.7107 38.5186H85.1911C85.1911 38.8542 85.4793 39.062 85.9117 39.062C86.3441 39.062 86.7124 38.8462 86.7124 38.5026C86.7124 38.159 86.5603 38.0551 86.232 37.9832L85.6555 37.8474C85.4191 37.8253 85.1997 37.7152 85.0409 37.539C84.8822 37.3628 84.7957 37.1334 84.7988 36.8964C84.7587 36.3051 85.2391 35.8975 85.9517 35.8975Z" fill="white"></path><path d="M90.4116 37.6955C90.3901 37.466 90.4175 37.2345 90.4918 37.0162C90.5662 36.7979 90.6859 36.5977 90.8431 36.4287C91.0003 36.2598 91.1914 36.1258 91.4041 36.0357C91.6167 35.9455 91.846 35.9012 92.077 35.9055C92.4293 35.8838 92.7775 35.9912 93.0561 36.2075C93.3347 36.4237 93.5247 36.7341 93.5903 37.0802H93.0859C93.0241 36.8603 92.8886 36.6683 92.7022 36.5359C92.5157 36.4036 92.2894 36.3391 92.061 36.353C91.7362 36.3965 91.4382 36.5562 91.2224 36.8023C91.0066 37.0485 90.8877 37.3645 90.8877 37.6915C90.8877 38.0186 91.0066 38.3346 91.2224 38.5807C91.4382 38.8269 91.7362 38.9865 92.061 39.03C92.2889 39.0439 92.5151 38.9825 92.7046 38.8554C92.8941 38.7284 93.0365 38.5426 93.1099 38.3268H93.6063C93.5242 38.6702 93.3234 38.9737 93.0394 39.1842C92.7553 39.3946 92.4061 39.4985 92.053 39.4775C91.8229 39.4848 91.594 39.4425 91.3818 39.3535C91.1696 39.2645 90.9791 39.1309 90.8233 38.9617C90.6675 38.7926 90.5501 38.592 90.4791 38.3735C90.408 38.1549 90.385 37.9237 90.4116 37.6955Z" fill="white"></path><path d="M96.5929 39.4296L97.858 35.9615H98.3784L99.6515 39.4296H99.1631L98.8508 38.5665H97.3856L97.0813 39.4296H96.5929ZM97.5297 38.159H98.7067L98.1783 36.7126L98.1142 36.5049C98.1 36.5753 98.0813 36.6446 98.0582 36.7126L97.5297 38.159Z" fill="white"></path><path d="M103.471 38.191V39.4296H102.998V35.9615H104.352C104.5 35.9521 104.649 35.9744 104.788 36.0269C104.928 36.0794 105.054 36.1609 105.159 36.266C105.265 36.3711 105.346 36.4973 105.399 36.6363C105.452 36.7753 105.474 36.9239 105.465 37.0722C105.473 37.2206 105.449 37.3689 105.396 37.5077C105.343 37.6465 105.262 37.7727 105.157 37.8781C105.052 37.9835 104.926 38.0658 104.787 38.1197C104.649 38.1736 104.5 38.1979 104.352 38.191H103.471ZM103.471 36.385V37.7674H104.271C104.367 37.7782 104.464 37.7679 104.555 37.7372C104.646 37.7065 104.729 37.6563 104.799 37.5899C104.868 37.5236 104.922 37.4429 104.957 37.3534C104.992 37.264 105.007 37.168 105 37.0722C105.008 36.9779 104.995 36.8831 104.961 36.7946C104.928 36.706 104.875 36.626 104.807 36.5603C104.739 36.4945 104.657 36.4447 104.567 36.4144C104.477 36.3841 104.382 36.374 104.288 36.385H103.471Z" fill="white"></path><path d="M109.356 39.4296H108.883V35.9615H109.356V39.4296Z" fill="white"></path><path d="M113.031 39.4296V35.9615H113.503L115.281 38.6385V35.9615H115.753V39.4296H115.281L113.503 36.7446V39.4296H113.031Z" fill="white"></path><path d="M119.749 37.7195C119.728 37.8874 119.744 38.0579 119.795 38.2192C119.846 38.3804 119.932 38.5288 120.046 38.654C120.16 38.7792 120.3 38.8783 120.456 38.9446C120.612 39.0109 120.78 39.0428 120.95 39.038C121.086 39.0542 121.224 39.0408 121.355 38.9988C121.485 38.9568 121.605 38.8871 121.706 38.7945C121.808 38.7019 121.888 38.5887 121.941 38.4624C121.994 38.3362 122.019 38.2 122.015 38.0631V37.9592H120.854V37.5437H122.455V39.4536H122.063V38.9821C121.935 39.1564 121.765 39.2959 121.57 39.388C121.374 39.4802 121.158 39.5219 120.942 39.5095C120.71 39.5191 120.48 39.4786 120.266 39.3906C120.051 39.3027 119.859 39.1694 119.701 39C119.544 38.8306 119.425 38.6291 119.353 38.4094C119.281 38.1897 119.258 37.9571 119.284 37.7275C119.266 37.4949 119.298 37.2612 119.376 37.0414C119.454 36.8215 119.577 36.6204 119.738 36.4511C119.898 36.2817 120.093 36.1478 120.308 36.0579C120.524 35.9681 120.756 35.9244 120.99 35.9295C121.327 35.905 121.661 36.0033 121.93 36.2061C122.2 36.4089 122.386 36.7025 122.455 37.0323H121.951C121.888 36.8274 121.757 36.65 121.579 36.5295C121.401 36.4089 121.188 36.3523 120.974 36.369C120.237 36.345 119.749 36.8964 119.749 37.7195Z" fill="white"></path><path d="M132.191 39.1179C131.891 39.367 131.509 39.4977 131.119 39.4855C130.374 39.4855 129.886 39.1099 129.886 38.5266C129.886 38.1031 130.158 37.7275 130.734 37.4638C130.502 37.2587 130.356 36.9731 130.326 36.6647C130.34 36.4626 130.431 36.2734 130.579 36.1355C130.728 35.9975 130.924 35.921 131.127 35.9215C131.227 35.9115 131.329 35.9226 131.426 35.9542C131.522 35.9857 131.611 36.0369 131.686 36.1046C131.761 36.1723 131.822 36.255 131.863 36.3473C131.905 36.4396 131.927 36.5395 131.927 36.6407C131.927 36.9843 131.743 37.256 131.303 37.5517L132.103 38.4946C132.188 38.2812 132.229 38.0529 132.224 37.8234H132.664C132.671 38.177 132.58 38.5257 132.4 38.8302L132.936 39.4456H132.408L132.191 39.1179ZM131.159 39.1179C131.305 39.128 131.451 39.1076 131.589 39.0581C131.727 39.0085 131.853 38.931 131.959 38.8302L130.982 37.7355C130.55 37.9752 130.374 38.199 130.374 38.5346C130.374 38.8702 130.646 39.102 131.159 39.102V39.1179ZM131.103 37.264C131.228 37.2065 131.334 37.1156 131.41 37.0013C131.487 36.8871 131.53 36.754 131.535 36.6167C131.537 36.5664 131.529 36.5162 131.51 36.4693C131.492 36.4225 131.463 36.3803 131.427 36.3454C131.39 36.3105 131.347 36.2839 131.299 36.2673C131.252 36.2507 131.201 36.2445 131.151 36.2492C131.098 36.2445 131.045 36.2512 130.996 36.2686C130.946 36.286 130.901 36.3138 130.863 36.3501C130.825 36.3865 130.795 36.4305 130.776 36.4792C130.757 36.528 130.748 36.5803 130.75 36.6327C130.75 36.8325 130.83 36.9763 131.103 37.264Z" fill="white"></path><path d="M140.631 37.7195C140.611 37.8892 140.628 38.0613 140.681 38.2237C140.735 38.3862 140.822 38.5352 140.939 38.6605C141.055 38.7858 141.198 38.8844 141.356 38.9496C141.514 39.0148 141.685 39.0449 141.856 39.038C141.991 39.0517 142.127 39.0365 142.256 38.9934C142.384 38.9502 142.502 38.8802 142.602 38.7879C142.701 38.6956 142.779 38.5832 142.832 38.4582C142.884 38.3332 142.909 38.1985 142.905 38.0631V37.9592H141.744V37.5437H143.345V39.4536H142.953V38.9821C142.824 39.1553 142.654 39.2941 142.459 39.3861C142.263 39.4781 142.048 39.5205 141.832 39.5095C141.6 39.5191 141.37 39.4786 141.156 39.3906C140.941 39.3027 140.749 39.1694 140.591 39C140.434 38.8306 140.315 38.6291 140.243 38.4094C140.171 38.1897 140.148 37.9571 140.174 37.7275C140.153 37.4951 140.181 37.2608 140.256 37.0397C140.331 36.8187 140.452 36.6158 140.61 36.4441C140.768 36.2725 140.961 36.1358 141.176 36.0431C141.39 35.9503 141.622 35.9035 141.856 35.9055C142.192 35.8795 142.526 35.9774 142.794 36.1807C143.063 36.3839 143.247 36.6784 143.313 37.0083H142.817C142.754 36.8034 142.622 36.6261 142.445 36.5055C142.267 36.3849 142.054 36.3283 141.84 36.345C141.666 36.3447 141.495 36.3814 141.336 36.4526C141.178 36.5239 141.037 36.6282 140.923 36.7583C140.808 36.8885 140.723 37.0416 140.672 37.2074C140.622 37.3732 140.608 37.5478 140.631 37.7195Z" fill="white"></path><path d="M146.556 39.4296L147.829 35.9615H148.349L149.622 39.4296H149.126L148.814 38.5665H147.357L147.044 39.4296H146.556ZM147.501 38.159H148.678L148.141 36.7126C148.117 36.6449 148.098 36.5755 148.085 36.5049C148.071 36.5753 148.052 36.6446 148.029 36.7126L147.501 38.159Z" fill="white"></path><path d="M152.969 39.4296V35.9615H154.274C155.019 35.9615 155.46 36.353 155.46 37.0003C155.472 37.2134 155.413 37.4247 155.291 37.6001C155.169 37.7755 154.992 37.9048 154.787 37.9672L155.5 39.4296H154.971L154.323 38.0631H153.434V39.4376L152.969 39.4296ZM153.434 37.6396H154.283C154.371 37.6514 154.461 37.6437 154.546 37.6169C154.631 37.5902 154.709 37.5451 154.775 37.4849C154.841 37.4247 154.892 37.3507 154.926 37.2684C154.96 37.186 154.975 37.0972 154.971 37.0083C154.971 36.6008 154.707 36.385 154.274 36.385H153.474L153.434 37.6396Z" fill="white"></path><path d="M158.991 39.4296V35.9615H160.12C160.58 35.9615 161.022 36.1442 161.348 36.4694C161.674 36.7946 161.857 37.2356 161.857 37.6955C161.857 38.1554 161.674 38.5965 161.348 38.9217C161.022 39.2469 160.58 39.4296 160.12 39.4296H158.991ZM159.463 36.393V38.9901H160.104C160.431 38.9644 160.737 38.8165 160.96 38.5758C161.183 38.3351 161.306 38.0193 161.306 37.6915C161.306 37.3637 161.183 37.048 160.96 36.8073C160.737 36.5666 160.431 36.4186 160.104 36.393H159.463Z" fill="white"></path><path d="M165.34 39.4296V35.9615H167.478V36.393H165.828V37.4798H167.31V37.8953H165.828V38.9901H167.478V39.4296H165.34Z" fill="white"></path><path d="M171.025 39.4296V35.9615H171.481L173.259 38.6385V35.9615H173.723V39.4296H173.259L171.481 36.7446V39.4296H171.025Z" fill="white"></path><path d="M48.7838 25.677C48.7838 22.1769 51.394 20.0034 55.8779 19.6518L61.883 19.1883V18.6449C61.883 15.4485 59.9694 14.3218 57.3992 14.3218C54.3245 14.3218 52.5951 15.6882 52.5951 17.9816H49.3923C49.3923 13.9861 52.6671 11.405 57.5833 11.405C62.2914 11.405 65.4941 13.8982 65.4941 19.0285V30.9671H62.3715L61.9871 27.8985C61.0103 30.0801 58.4 31.4385 55.3174 31.4385C51.2019 31.4385 48.7838 29.1451 48.7838 25.677ZM61.9231 22.7603V21.7534L57.0469 22.145C53.8441 22.4486 52.491 23.6952 52.491 25.5651C52.491 27.5869 53.9722 28.6017 56.3503 28.6017C59.8173 28.6017 61.9231 26.3403 61.9231 22.7603Z" fill="white"></path><path d="M70.5305 30.9671V11.9484H73.8453L74.2377 14.8651C74.8824 13.7773 75.8082 12.8823 76.9181 12.2736C78.028 11.6649 79.2813 11.3649 80.5471 11.405C85.5754 11.405 87.8734 14.4816 87.8734 19.3401V30.9671H84.2062V20.1552C84.2062 16.3035 82.4127 14.7533 79.6023 14.7533C76.1753 14.7533 74.1896 17.1985 74.1896 20.8984V30.9671H70.5305Z" fill="white"></path><path d="M91.6927 21.5217C91.6927 15.6882 95.0796 11.405 100.732 11.405C102.074 11.3338 103.409 11.6342 104.591 12.2731C105.772 12.9119 106.753 13.8643 107.426 15.025V2.34319H111.053V30.9671H107.746L107.426 27.507C106.177 30.112 103.607 31.4385 100.572 31.4385C95.0396 31.4385 91.6927 27.3152 91.6927 21.5217ZM107.362 21.4018C107.362 17.5102 105.056 14.7133 101.317 14.7133C97.5777 14.7133 95.3919 17.5102 95.3919 21.4018C95.3919 25.2934 97.5777 28.1303 101.317 28.1303C105.056 28.1303 107.362 25.3734 107.362 21.4018Z" fill="white"></path><path d="M118.268 25.4453C118.268 27.3951 119.749 28.5618 122.167 28.5618C124.737 28.5618 126.218 27.507 126.218 25.7569C126.218 24.4784 125.594 23.6952 123.608 23.1918L120.253 22.3927C116.866 21.5936 115.265 19.8995 115.265 17.1026C115.265 13.6026 118.227 11.381 122.471 11.381C126.715 11.381 129.365 13.7144 129.445 17.3344H125.938C125.858 15.4245 124.577 14.2179 122.351 14.2179C120.125 14.2179 118.764 15.2327 118.764 16.9828C118.764 18.2693 119.701 19.1244 121.574 19.5878L124.921 20.3869C128.124 21.186 129.725 22.6484 129.725 25.4852C129.725 29.1052 126.611 31.3986 122.087 31.3986C117.563 31.3986 114.761 29.0013 114.761 25.4053L118.268 25.4453Z" fill="white"></path><path d="M141.856 11.405C146.66 11.405 150.007 14.13 150.663 18.3652H146.996C146.726 17.2585 146.074 16.2821 145.154 15.6071C144.235 14.9321 143.107 14.6015 141.968 14.6734C138.501 14.6734 136.123 17.3184 136.123 21.4418C136.123 25.5651 138.341 28.1702 141.816 28.1702C144.426 28.1702 146.372 26.8117 147.036 24.5503H150.695C149.959 28.6736 146.412 31.4385 141.816 31.4385C136.211 31.4385 132.496 27.443 132.496 21.4817C132.496 15.5204 136.307 11.405 141.856 11.405Z" fill="white"></path><path d="M163.274 11.445C168.967 11.445 173.179 15.5684 173.179 21.4418C173.179 27.3152 168.967 31.4385 163.274 31.4385C157.581 31.4385 153.338 27.3152 153.338 21.4418C153.338 15.5684 157.549 11.445 163.274 11.445ZM163.274 28.1702C166.941 28.1702 169.512 25.4053 169.512 21.4418C169.512 17.4782 166.941 14.7133 163.274 14.7133C159.607 14.7133 157.069 17.4702 157.069 21.4418C157.069 25.4133 159.575 28.1702 163.274 28.1702Z" fill="white"></path><path d="M177.222 11.9484H180.537L180.809 15.3766C182.098 12.7635 184.669 11.381 187.711 11.381C193.164 11.381 196.559 15.4645 196.559 21.2979C196.559 27.1314 193.356 31.4545 187.711 31.4545C184.669 31.4545 182.106 30.168 180.889 27.8346V39.4855H177.222V11.9484ZM186.927 28.1702C190.674 28.1702 192.892 25.3734 192.892 21.4817C192.892 17.5901 190.674 14.7533 186.927 14.7533C183.179 14.7533 180.929 17.5102 180.929 21.4817C180.929 25.4533 183.187 28.1702 186.927 28.1702Z" fill="white"></path><path d="M40.6007 35.9535V39.4855H56.8147V35.9455L40.6007 35.9535ZM44.42 2.30323H40.6007V30.9671H44.42V2.30323Z" fill="white"></path></svg>